<svg width="975" height="286" viewBox="0 0 975 286" fill="none" xmlns="http://www.w3.org/2000/svg">
<rect width="270.363" height="243.616" fill="#760BF7"/>
<path d="M107.143 110.212L140.07 152.473L220.858 102.744H243.168L252.426 243.615H17.5295L56.9045 67.9514H78.799L107.143 110.212ZM124.516 217.818C123.083 217.818 122.295 219.482 123.202 220.59L132.552 231.999C133.231 232.828 134.499 232.828 135.178 231.999L144.528 220.59C145.435 219.482 144.646 217.818 143.214 217.818H124.516ZM173.579 179.969C163.456 179.969 155.249 188.176 155.249 198.299C155.249 208.422 163.456 216.629 173.579 216.629C183.703 216.629 191.909 208.422 191.909 198.299C191.909 188.176 183.703 179.969 173.579 179.969ZM94.1486 179.289C84.0252 179.289 75.8185 187.496 75.8185 197.619C75.8187 207.743 84.0253 215.949 94.1486 215.949C104.272 215.949 112.479 207.743 112.479 197.619C112.479 187.496 104.272 179.289 94.1486 179.289Z" fill="white"/>
<path d="M186.624 59.1229C209.774 115.383 129.032 116.939 142.038 159.641" stroke="#760BF7" stroke-width="21.6869" stroke-linecap="square"/>
<path d="M232.05 18.7952C235.642 36.8336 242.823 44.0838 260.966 47.711C242.818 51.3382 235.638 58.5885 232.05 76.6269C228.457 58.5885 221.277 51.334 203.134 47.711C221.281 44.0838 228.462 36.8336 232.05 18.7952Z" fill="white"/>
<path d="M317.037 234.808V108.981H348.494V123.187H353.06C354.92 118.114 357.964 114.393 362.193 112.025C366.59 109.657 371.663 108.474 377.414 108.474H392.635V136.886H376.906C368.788 136.886 362.108 139.085 356.865 143.482C351.622 147.71 349.001 154.306 349.001 163.269V234.808H317.037ZM445.123 238.36C432.608 238.36 421.531 235.738 411.891 230.495C402.42 225.084 394.979 217.558 389.567 207.918C384.324 198.109 381.702 186.608 381.702 173.417V170.372C381.702 157.181 384.324 145.765 389.567 136.125C394.809 126.316 402.166 118.79 411.637 113.547C421.108 108.135 432.101 105.429 444.616 105.429C456.962 105.429 467.701 108.22 476.834 113.801C485.967 119.213 493.07 126.823 498.143 136.632C503.217 146.272 505.754 157.519 505.754 170.372V181.281H414.174C414.512 189.906 417.726 196.925 423.814 202.337C429.902 207.748 437.344 210.454 446.138 210.454C455.102 210.454 461.697 208.51 465.925 204.62C470.154 200.73 473.367 196.417 475.565 191.682L501.695 205.381C499.327 209.778 495.86 214.598 491.294 219.841C486.897 224.914 480.977 229.312 473.536 233.032C466.095 236.584 456.624 238.36 445.123 238.36ZM414.428 157.435H473.282C472.606 150.162 469.646 144.328 464.403 139.93C459.33 135.533 452.649 133.335 444.362 133.335C435.737 133.335 428.888 135.533 423.814 139.93C418.74 144.328 415.612 150.162 414.428 157.435ZM508.836 285.545V108.981H540.293V124.202H544.859C547.734 119.297 552.216 114.985 558.304 111.264C564.392 107.374 573.102 105.429 584.434 105.429C594.581 105.429 603.967 107.966 612.592 113.04C621.218 117.944 628.152 125.217 633.395 134.857C638.637 144.497 641.259 156.166 641.259 169.865V173.924C641.259 187.623 638.637 199.292 633.395 208.932C628.152 218.572 621.218 225.929 612.592 231.003C603.967 235.907 594.581 238.36 584.434 238.36C576.823 238.36 570.396 237.43 565.154 235.569C560.08 233.878 555.936 231.679 552.723 228.973C549.679 226.098 547.227 223.223 545.366 220.348H540.8V285.545H508.836ZM574.794 210.454C584.772 210.454 592.974 207.326 599.401 201.068C605.997 194.641 609.295 185.34 609.295 173.163V170.626C609.295 158.449 605.997 149.232 599.401 142.975C592.805 136.548 584.603 133.335 574.794 133.335C564.984 133.335 556.782 136.548 550.186 142.975C543.59 149.232 540.293 158.449 540.293 170.626V173.163C540.293 185.34 543.59 194.641 550.186 201.068C556.782 207.326 564.984 210.454 574.794 210.454ZM705.11 238.36C692.595 238.36 681.348 235.823 671.37 230.749C661.392 225.675 653.527 218.319 647.777 208.679C642.027 199.039 639.152 187.454 639.152 173.924V169.865C639.152 156.335 642.027 144.75 647.777 135.11C653.527 125.47 661.392 118.114 671.37 113.04C681.348 107.966 692.595 105.429 705.11 105.429C717.625 105.429 728.871 107.966 738.85 113.04C748.828 118.114 756.692 125.47 762.442 135.11C768.192 144.75 771.068 156.335 771.068 169.865V173.924C771.068 187.454 768.192 199.039 762.442 208.679C756.692 218.319 748.828 225.675 738.85 230.749C728.871 235.823 717.625 238.36 705.11 238.36ZM705.11 209.947C714.919 209.947 723.037 206.818 729.463 200.561C735.89 194.134 739.103 185.001 739.103 173.163V170.626C739.103 158.787 735.89 149.739 729.463 143.482C723.206 137.055 715.088 133.842 705.11 133.842C695.301 133.842 687.183 137.055 680.756 143.482C674.329 149.739 671.116 158.787 671.116 170.626V173.163C671.116 185.001 674.329 194.134 680.756 200.561C687.183 206.818 695.301 209.947 705.11 209.947ZM775.204 234.808V57.2294H807.168V234.808H775.204ZM817.22 234.808V108.981H849.184V234.808H817.22ZM833.202 94.2672C827.452 94.2672 822.548 92.4069 818.489 88.6862C814.599 84.9655 812.654 80.0609 812.654 73.9725C812.654 67.8841 814.599 62.9795 818.489 59.2588C822.548 55.5381 827.452 53.6778 833.202 53.6778C839.122 53.6778 844.026 55.5381 847.916 59.2588C851.806 62.9795 853.751 67.8841 853.751 73.9725C853.751 80.0609 851.806 84.9655 847.916 88.6862C844.026 92.4069 839.122 94.2672 833.202 94.2672ZM907.437 234.808C899.15 234.808 892.385 232.271 887.142 227.198C882.068 221.955 879.531 215.021 879.531 206.396V135.364H848.075V108.981H879.531V69.9136H911.496V108.981H945.997V135.364H911.496V200.814C911.496 205.888 913.863 208.425 918.599 208.425H942.952V234.808H907.437Z" fill="#760BF7"/>
</svg>
