<svg width="140" height="127" viewBox="0 0 140 127" fill="none" xmlns="http://www.w3.org/2000/svg">
<rect width="140" height="126.15" fill="#760BF7"/>
<path d="M55.4805 57.0706L72.5312 78.9543L114.365 53.2034H125.918L130.712 126.149H9.07715L29.4668 35.1868H40.8037L55.4805 57.0706ZM64.4766 112.79C63.735 112.79 63.3268 113.653 63.7969 114.227L68.6387 120.134C68.9903 120.563 69.6464 120.563 69.998 120.134L74.8389 114.227C75.309 113.653 74.9009 112.79 74.1592 112.79H64.4766ZM89.8828 93.1917C84.6408 93.1918 80.3916 97.4418 80.3916 102.684C80.3918 107.926 84.6409 112.175 89.8828 112.175C95.1248 112.175 99.3748 107.926 99.375 102.684C99.375 97.4417 95.125 93.1917 89.8828 93.1917ZM48.752 92.8401C43.5099 92.8401 39.2599 97.0893 39.2598 102.331C39.2598 107.573 43.5098 111.823 48.752 111.823C53.9941 111.823 58.2441 107.573 58.2441 102.331C58.244 97.0893 53.994 92.8401 48.752 92.8401Z" fill="white"/>
<path d="M96.638 30.615C108.625 59.7477 66.8157 60.5533 73.5505 82.6655" stroke="#760BF7" stroke-width="11.2299" stroke-linecap="square"/>
<path d="M120.16 9.73267C122.02 19.0733 125.739 22.8277 135.134 24.7059C125.737 26.5842 122.018 30.3385 120.16 39.6792C118.3 30.3385 114.582 26.582 105.187 24.7059C114.584 22.8277 118.302 19.0733 120.16 9.73267Z" fill="white"/>
</svg>
