<svg width="192" height="192" viewBox="0 0 192 192" fill="none" xmlns="http://www.w3.org/2000/svg">
<g clip-path="url(#clip0_92_1530)">
<rect width="192" height="192" fill="#760BF7"/>
<path d="M78.1553 108.407L99.041 135.214L150.286 103.67H164.438L170.311 193.026H21.3105L46.2881 81.5996H60.1758L78.1553 108.407ZM89.1748 176.663C88.2662 176.663 87.7659 177.72 88.3418 178.423L94.2725 185.659C94.7032 186.185 95.5078 186.185 95.9385 185.659L101.869 178.423C102.445 177.72 101.945 176.663 101.036 176.663H89.1748ZM120.297 152.655C113.875 152.655 108.67 157.861 108.67 164.282C108.67 170.704 113.875 175.909 120.297 175.909C126.718 175.909 131.924 170.704 131.924 164.282C131.924 157.861 126.718 152.655 120.297 152.655ZM69.9121 152.225C63.4906 152.225 58.2852 157.43 58.2852 163.852C58.2852 170.273 63.4906 175.479 69.9121 175.479C76.3336 175.479 81.5391 170.273 81.5391 163.852C81.539 157.43 76.3336 152.225 69.9121 152.225Z" fill="white"/>
<path d="M128.572 75.9997C143.256 111.687 92.0399 112.673 100.29 139.76" stroke="#760BF7" stroke-width="13.7564" stroke-linecap="square"/>
<path d="M153.413 36C155.538 46.669 159.785 50.9572 170.516 53.1025C159.782 55.2479 155.535 59.5361 153.413 70.2051C151.288 59.5361 147.041 55.2454 136.311 53.1025C147.044 50.9572 151.291 46.669 153.413 36Z" fill="white"/>
</g>
<defs>
<clipPath id="clip0_92_1530">
<rect width="192" height="192" fill="white"/>
</clipPath>
</defs>
</svg>
