<svg width="512" height="512" viewBox="0 0 512 512" fill="none" xmlns="http://www.w3.org/2000/svg">
<g clip-path="url(#clip0_92_1542)">
<rect width="512" height="512" fill="#760BF7"/>
<path d="M208.342 284.052L264.636 356.306L402.759 271.284H440.903L456.731 512.13H55.1289L122.45 211.799H159.883L208.342 284.052ZM238.043 468.026C235.594 468.027 234.247 470.873 235.799 472.768L251.784 492.273C252.945 493.69 255.112 493.69 256.272 492.273L272.258 472.768C273.81 470.873 272.462 468.026 270.013 468.026H238.043ZM321.929 403.313C304.621 403.314 290.59 417.344 290.59 434.652C290.59 451.96 304.621 465.991 321.929 465.991C339.237 465.991 353.268 451.96 353.268 434.652C353.268 417.344 339.237 403.313 321.929 403.313ZM186.125 402.155C168.817 402.156 154.786 416.186 154.786 433.494C154.786 450.802 168.817 464.833 186.125 464.833C203.433 464.833 217.464 450.802 217.464 433.494C217.464 416.186 203.433 402.155 186.125 402.155Z" fill="white"/>
<path d="M344.231 196.705C383.81 292.892 245.766 295.552 268.002 368.56" stroke="#760BF7" stroke-width="37.0779" stroke-linecap="square"/>
<path d="M411.226 80.1924C416.953 108.949 428.4 120.507 457.322 126.289C428.393 132.072 416.946 143.63 411.226 172.386C405.499 143.63 394.052 132.065 365.129 126.289C394.059 120.507 405.506 108.949 411.226 80.1924Z" fill="white"/>
</g>
<defs>
<clipPath id="clip0_92_1542">
<rect width="512" height="512" fill="white"/>
</clipPath>
</defs>
</svg>
